<svg id="visual" viewBox="0 0 960 540" width="960" height="540" xmlns="http://www.w3.org/2000/svg" xmlns:xlink="http://www.w3.org/1999/xlink" version="1.1"><rect x="0" y="0" width="960" height="540" fill="#094173"></rect><defs><linearGradient id="grad1_0" x1="43.8%" y1="0%" x2="100%" y2="100%"><stop offset="14.444444444444446%" stop-color="#094173" stop-opacity="1"></stop><stop offset="85.55555555555554%" stop-color="#094173" stop-opacity="1"></stop></linearGradient></defs><defs><linearGradient id="grad2_0" x1="0%" y1="0%" x2="56.3%" y2="100%"><stop offset="14.444444444444446%" stop-color="#094173" stop-opacity="1"></stop><stop offset="85.55555555555554%" stop-color="#094173" stop-opacity="1"></stop></linearGradient></defs><g transform="translate(960, 0)"><path d="M0 297C-25.4 278.5 -50.8 259.9 -82.2 253C-113.6 246 -150.9 250.7 -169.3 233C-187.7 215.3 -187.2 175.1 -206.3 149.9C-225.4 124.6 -264.1 114.3 -282.5 91.8C-300.8 69.3 -298.9 34.6 -297 0L0 0Z" fill="#F2B705"></path></g><g transform="translate(0, 540)"><path d="M0 -297C31.1 -294.6 62.3 -292.2 91.8 -282.5C121.3 -272.7 149.2 -255.5 169.9 -233.8C190.5 -212.1 203.9 -185.7 223.3 -162.2C242.7 -138.7 268.2 -118 281.5 -91.5C294.8 -64.9 295.9 -32.5 297 0L0 0Z" fill="#F2B705"></path></g></svg>